<svg id="Layer_1" data-name="Layer 1" xmlns="http://www.w3.org/2000/svg" viewBox="0 0 147.98 43.28"><defs><style>.cls-1,.cls-5{font-size:40px;}.cls-1,.cls-4,.cls-5{fill:#b3d1fd;font-family:Raleway-SemiBold, Raleway;font-weight:700;}.cls-2{letter-spacing:-0.03em;}.cls-3{fill:#f2ce9e;}.cls-4{font-size:38px;}.cls-5{letter-spacing:-0.02em;}</style></defs><title>formal</title><text class="cls-1" transform="translate(41.5 34.2)"><tspan xml:space="preserve">  rma</tspan><tspan class="cls-2" x="94.36" y="0">l</tspan></text><path class="cls-3" d="M39.43,31V41.2A1,1,0,0,1,39,42l-8,5.66c-1,.73-2.85.23-2.85-.79V26.14c0-1,1.69-1.51,2.76-.86l8,4.85A1,1,0,0,1,39.43,31Z" transform="translate(-4 -12.88)"/><path class="cls-3" d="M52.91,41.2V31a1,1,0,0,1,.56-.86l8-4.85c1.07-.65,2.76-.13,2.76.86V46.86c0,1-1.81,1.53-2.85.79l-8-5.66A1,1,0,0,1,52.91,41.2Z" transform="translate(-4 -12.88)"/><ellipse class="cls-3" cx="42.95" cy="22.62" rx="8.05" ry="9.5"/><text class="cls-4" transform="translate(30.5 33.2)">o</text><text class="cls-5" transform="translate(0 34.2)">F</text></svg>