<svg id="Layer_1" data-name="Layer 1" xmlns="http://www.w3.org/2000/svg" viewBox="0 0 129.4 42.5"><defs><style>.cls-1{fill:#bcc4cc;}.cls-2{fill:#f0ad4e;}.cls-3{fill:none;stroke:#000;stroke-miterlimit:10;}</style></defs><title>formal</title><path class="cls-1" d="M19.12,49.48V21.08H38v4H23.6v8.48H35.68v3.72H23.6V49.48Z" transform="translate(-19.12 -7.37)"/><path class="cls-1" d="M49.76,49.88A10.87,10.87,0,0,1,45.3,49a10.24,10.24,0,0,1-5.54-5.82,11.65,11.65,0,0,1,0-8.28,10.23,10.23,0,0,1,2.18-3.46,10.64,10.64,0,0,1,3.4-2.36,11.54,11.54,0,0,1,8.84,0,10.66,10.66,0,0,1,3.4,2.36,10.25,10.25,0,0,1,2.18,3.46,11.66,11.66,0,0,1,0,8.28,10.25,10.25,0,0,1-2.18,3.46A10.64,10.64,0,0,1,54.18,49,10.77,10.77,0,0,1,49.76,49.88Zm-6.24-10.8a7.91,7.91,0,0,0,.48,2.8,7,7,0,0,0,1.32,2.22,6.16,6.16,0,0,0,2,1.48,5.87,5.87,0,0,0,4.92,0,6,6,0,0,0,2-1.5,7.2,7.2,0,0,0,1.32-2.24,8.35,8.35,0,0,0,0-5.58A7.16,7.16,0,0,0,54.2,34a6,6,0,0,0-2-1.5A5.67,5.67,0,0,0,49.76,32a5.42,5.42,0,0,0-2.42.56,6.29,6.29,0,0,0-2,1.52A7.47,7.47,0,0,0,44,36.29,7.68,7.68,0,0,0,43.52,39.08Z" transform="translate(-19.12 -7.37)"/><path class="cls-1" d="M76.2,32.35a9.85,9.85,0,0,0-4.54,1.18,6.22,6.22,0,0,0-2.82,3.14v12.8h-4.4V28.56h4.08v4.68a9.57,9.57,0,0,1,2.82-3.46,6.84,6.84,0,0,1,3.74-1.42h.66a2.39,2.39,0,0,1,.46,0Z" transform="translate(-19.12 -7.37)"/><path class="cls-1" d="M111.4,49.48H107V37.75a7.54,7.54,0,0,0-1-4.28,3.21,3.21,0,0,0-2.8-1.36,5,5,0,0,0-3.42,1.38,7.76,7.76,0,0,0-2.22,3.58v12.4H93.2V37.75a7.51,7.51,0,0,0-1-4.3,3.19,3.19,0,0,0-2.76-1.34A5.12,5.12,0,0,0,86,33.48,7.57,7.57,0,0,0,83.8,37V49.48H79.4V28.56h4v4.2a8.84,8.84,0,0,1,3.26-3.38,9,9,0,0,1,4.62-1.18,5.59,5.59,0,0,1,6,4.76,9.59,9.59,0,0,1,3.32-3.54,8.58,8.58,0,0,1,4.56-1.22,6.08,6.08,0,0,1,3.06.7,5.41,5.41,0,0,1,1.94,1.86,7.72,7.72,0,0,1,1,2.7,18.32,18.32,0,0,1,.28,3.26Z" transform="translate(-19.12 -7.37)"/><path class="cls-1" d="M122,49.88a7.8,7.8,0,0,1-2.82-.5A6.81,6.81,0,0,1,117,48a6.41,6.41,0,0,1-1.48-2.08,6.25,6.25,0,0,1-.54-2.6,5.6,5.6,0,0,1,.64-2.68,6.26,6.26,0,0,1,1.82-2.08,8.83,8.83,0,0,1,2.8-1.36,12.56,12.56,0,0,1,3.58-.48,16.4,16.4,0,0,1,2.92.26,14.77,14.77,0,0,1,2.6.7V36.23A4.85,4.85,0,0,0,128,32.62a5.19,5.19,0,0,0-3.8-1.3,9.17,9.17,0,0,0-3.3.62,16.72,16.72,0,0,0-3.34,1.78l-1.36-2.8a14.83,14.83,0,0,1,8.4-2.72,9.58,9.58,0,0,1,6.72,2.2,8.14,8.14,0,0,1,2.4,6.32v7.56q0,1.4,1.16,1.44v3.76q-.64.12-1.1.16c-.31,0-.61,0-.9,0a2.83,2.83,0,0,1-2-.64A2.73,2.73,0,0,1,130,47.4l-.12-1.32a9.33,9.33,0,0,1-3.46,2.82A10.16,10.16,0,0,1,122,49.88Zm1.2-3.24a7.91,7.91,0,0,0,3-.58,5.2,5.2,0,0,0,2.22-1.62,2,2,0,0,0,.84-1.52V40.16a13.3,13.3,0,0,0-2.38-.68,13.11,13.11,0,0,0-2.46-.24,6.73,6.73,0,0,0-3.86,1,3.13,3.13,0,0,0-1.5,2.7,3.4,3.4,0,0,0,1.16,2.62A4.22,4.22,0,0,0,123.24,46.64Z" transform="translate(-19.12 -7.37)"/><path class="cls-1" d="M139.08,20.27h4.4V43.44a2.61,2.61,0,0,0,.6,1.82,2.15,2.15,0,0,0,1.68.66,3.89,3.89,0,0,0,1-.16q.58-.16,1.1-.36l.64,3.44a10.2,10.2,0,0,1-2.28.7,12.39,12.39,0,0,1-2.36.26,4.83,4.83,0,0,1-3.54-1.24A4.71,4.71,0,0,1,139.08,45Z" transform="translate(-19.12 -7.37)"/><path class="cls-2" d="M70.76,11.71v7.38c0,.21-.17.42-.47.57l-8,4.09c-1,.53-2.85.17-2.85-.57V8.2c0-.71,1.69-1.09,2.76-.62l8,3.51C70.55,11.25,70.76,11.47,70.76,11.71Z" transform="translate(-19.12 -7.37)"/><path class="cls-2" d="M79.24,19.08V11.71c0-.24.2-.46.56-.62l8-3.51c1.07-.47,2.76-.09,2.76.62v15c0,.74-1.81,1.11-2.85.57l-8-4.09C79.41,19.5,79.24,19.3,79.24,19.08Z" transform="translate(-19.12 -7.37)"/><ellipse class="cls-2" cx="55.91" cy="8.07" rx="6.2" ry="5.68"/><path class="cls-3" d="M61.38,21.13v-11c0-.52,1.24-.8,2-.46l5.9,2.58" transform="translate(-19.12 -7.37)"/><path class="cls-3" d="M70.57,16.79a.66.66,0,0,1-.15-.47A5.38,5.38,0,0,1,76,11.19" transform="translate(-19.12 -7.37)"/><path class="cls-3" d="M75.5,19.39c1.1-.29,2.92-.34,3.42-3.4" transform="translate(-19.12 -7.37)"/><path class="cls-2" d="M76.36,11.63c2.85,0-4.33,6.78-5.45,5.6" transform="translate(-19.12 -7.37)"/><path class="cls-3" d="M88.92,12.63v8.26c0,.52-1.24.8-2,.45l-3.42-1.81" transform="translate(-19.12 -7.37)"/></svg>