<svg id="Layer_1" data-name="Layer 1" xmlns="http://www.w3.org/2000/svg" viewBox="0 0 142.48 51.18"><defs><style>.cls-1{font-size:40px;fill:#bcc4cc;font-family:Raleway-SemiBold, Raleway;font-weight:700;}.cls-2{letter-spacing:-0.03em;}.cls-3{letter-spacing:-0.03em;}.cls-4{fill:#f0ad4e;}.cls-5{fill:none;stroke:#000;stroke-miterlimit:10;}</style></defs><title>formal</title><text class="cls-1" transform="translate(0 42.1)"> <tspan class="cls-2" x="9.88" y="0">F</tspan><tspan x="31.68" y="0">orma</tspan><tspan class="cls-3" x="130.36" y="0">l</tspan></text><path class="cls-4" d="M70.76,11.71v7.38c0,.21-.17.42-.47.57l-8,4.09c-1,.53-2.85.17-2.85-.57V8.2c0-.71,1.69-1.09,2.76-.62l8,3.51C70.55,11.25,70.76,11.47,70.76,11.71Z" transform="translate(-6.04 -7.37)"/><path class="cls-4" d="M79.24,19.08V11.71c0-.24.2-.46.56-.62l8-3.51c1.07-.47,2.76-.09,2.76.62v15c0,.74-1.81,1.11-2.85.57l-8-4.09C79.41,19.5,79.24,19.3,79.24,19.08Z" transform="translate(-6.04 -7.37)"/><ellipse class="cls-4" cx="68.99" cy="8.07" rx="6.2" ry="5.68"/><path class="cls-5" d="M61.38,21.13v-11c0-.52,1.24-.8,2-.46l5.9,2.58" transform="translate(-6.04 -7.37)"/><path class="cls-5" d="M70.57,16.79a.66.66,0,0,1-.15-.47A5.38,5.38,0,0,1,76,11.19" transform="translate(-6.04 -7.37)"/><path class="cls-5" d="M75.5,19.39c1.1-.29,2.92-.34,3.42-3.4" transform="translate(-6.04 -7.37)"/><path class="cls-4" d="M76.36,11.63c2.85,0-4.33,6.78-5.45,5.6" transform="translate(-6.04 -7.37)"/><path class="cls-5" d="M88.92,12.63v8.26c0,.52-1.24.8-2,.45l-3.42-1.81" transform="translate(-6.04 -7.37)"/></svg>